<svg width="27" height="24" viewBox="0 0 27 24" fill="none" xmlns="http://www.w3.org/2000/svg">
<path d="M22.5 17.5797C23.6827 17.1193 24.6512 16.3113 25.2429 15.2913C25.8346 14.2712 26.0136 13.1013 25.7497 11.9779C25.4859 10.8545 24.7953 9.84593 23.7938 9.12155C22.7924 8.39717 21.5411 8.00106 20.25 7.99971H18.8325C18.4759 6.77223 17.7962 5.63766 16.8495 4.68951C15.9028 3.74136 14.7161 3.00679 13.3873 2.54633C12.0585 2.08588 10.6256 1.91273 9.20668 2.04116C7.7878 2.16958 6.42357 2.59591 5.22644 3.285C4.02931 3.97408 3.03356 4.9062 2.32125 6.00451C1.60895 7.10282 1.20049 8.33589 1.12955 9.60206C1.05861 10.8682 1.32721 12.1313 1.91322 13.2871C2.49922 14.4429 3.38586 15.4583 4.50004 16.2497M9.00004 15.9997H9.01129M9.00004 19.9997H9.01129M13.5 17.9997H13.5113M13.5 21.9997H13.5113M18 15.9997H18.0113M18 19.9997H18.0113" stroke="#202D40" stroke-width="2" stroke-linecap="round" stroke-linejoin="round"/>
</svg>
