<svg width="27" height="19" viewBox="0 0 27 19" fill="none" xmlns="http://www.w3.org/2000/svg">
<rect width="1280" height="720" transform="translate(-877 -609)" fill="white"/>
<rect x="-880" y="-609" width="1283" height="1641" fill="#FFB560"/>
<path d="M3.09375 7.33691H6.85125V10.0557C6.85125 10.4306 6.98993 10.7902 7.23677 11.0553C7.48362 11.3205 7.81841 11.4694 8.1675 11.4694H10.8C11.1491 11.4694 11.4839 11.3205 11.7307 11.0553C11.9776 10.7902 12.1163 10.4306 12.1163 10.0557V7.33691H23.9062C23.9062 10.2852 23.9062 12.6898 22.2862 14.4177C22.1784 14.5296 22.0526 14.6196 21.915 14.6836C21.196 15.0024 20.4384 15.2099 19.665 15.2998C15.5559 15.8497 11.3991 15.8497 7.29 15.2998C6.51518 15.204 5.75733 14.9883 5.04 14.6594C4.91121 14.5967 4.79328 14.5108 4.69125 14.4057C3.11625 12.6657 3.09375 10.2852 3.09375 7.33691Z" stroke="#202D40" stroke-width="2" stroke-linecap="round" stroke-linejoin="round"/>
<path d="M4.50007 17.6685C4.4911 16.6409 4.67475 15.6217 5.04007 14.6719" stroke="#202D40" stroke-width="2" stroke-linecap="round" stroke-linejoin="round"/>
<path d="M19.6763 15.2998C20.4497 15.2099 21.2072 15.0024 21.9263 14.6836C22.3032 15.6266 22.4983 16.6419 22.5 17.6682" stroke="#202D40" stroke-width="2" stroke-linecap="round" stroke-linejoin="round"/>
<path d="M1.6875 7.33691H3.09375M23.9062 7.33691H25.3125" stroke="#202D40" stroke-width="2" stroke-linecap="round" stroke-linejoin="round"/>
<path d="M22.0951 7.33691V3.16816C22.0601 2.70521 21.8642 2.27335 21.5464 1.95846C21.2285 1.64358 20.8119 1.46875 20.3794 1.46875C19.947 1.46875 19.5304 1.64358 19.2125 1.95846C18.8946 2.27335 18.6988 2.70521 18.6638 3.16816" stroke="#202D40" stroke-width="2" stroke-linecap="round" stroke-linejoin="round"/>
<path d="M12.1163 10.0556C12.1163 10.4306 11.9776 10.7902 11.7308 11.0553C11.484 11.3204 11.1492 11.4694 10.8001 11.4694H8.16757C7.81848 11.4694 7.48368 11.3204 7.23684 11.0553C6.98999 10.7902 6.85132 10.4306 6.85132 10.0556V6.7448C6.85132 6.36985 6.98999 6.01026 7.23684 5.74513C7.48368 5.48 7.81848 5.33105 8.16757 5.33105H10.8001C11.1483 5.33421 11.4813 5.48417 11.7275 5.74862C11.9738 6.01307 12.1134 6.37083 12.1163 6.7448V10.0556Z" stroke="#202D40" stroke-width="2" stroke-linecap="round" stroke-linejoin="round"/>
</svg>
