<svg width="31" height="27" viewBox="0 0 31 27" fill="none" xmlns="http://www.w3.org/2000/svg">
<path d="M14.2083 4.49977H5.16659C4.48144 4.49977 3.82436 4.73682 3.33989 5.15878C2.85542 5.58073 2.58325 6.15303 2.58325 6.74977V22.4998C2.58325 23.0965 2.85542 23.6688 3.33989 24.0908C3.82436 24.5127 4.48144 24.7498 5.16659 24.7498H23.2499C23.9351 24.7498 24.5921 24.5127 25.0766 24.0908C25.5611 23.6688 25.8333 23.0965 25.8333 22.4998V14.6248M23.8958 2.81227C24.4096 2.36471 25.1065 2.11328 25.8333 2.11328C26.56 2.11328 27.2569 2.36471 27.7708 2.81227C28.2846 3.25982 28.5733 3.86683 28.5733 4.49977C28.5733 5.1327 28.2846 5.73971 27.7708 6.18727L15.4999 16.8748L10.3333 17.9998L11.6249 13.4998L23.8958 2.81227Z" stroke="#743419" stroke-width="2" stroke-linecap="round" stroke-linejoin="round"/>
</svg>
