<svg width="26" height="26" viewBox="0 0 26 26" fill="none" xmlns="http://www.w3.org/2000/svg">
<g id="directions_car">
<path id="icon" d="M6.5 20.5837V21.667C6.5 21.9739 6.39618 22.2312 6.18854 22.4389C5.9809 22.6465 5.72361 22.7503 5.41667 22.7503H4.33333C4.02639 22.7503 3.7691 22.6465 3.56146 22.4389C3.35382 22.2312 3.25 21.9739 3.25 21.667V13.0003L5.525 6.50033C5.63333 6.17533 5.82743 5.91352 6.10729 5.71491C6.38715 5.5163 6.69861 5.41699 7.04167 5.41699H18.9583C19.3014 5.41699 19.6128 5.5163 19.8927 5.71491C20.1726 5.91352 20.3667 6.17533 20.475 6.50033L22.75 13.0003V21.667C22.75 21.9739 22.6462 22.2312 22.4385 22.4389C22.2309 22.6465 21.9736 22.7503 21.6667 22.7503H20.5833C20.2764 22.7503 20.0191 22.6465 19.8115 22.4389C19.6038 22.2312 19.5 21.9739 19.5 21.667V20.5837H6.5ZM6.28333 10.8337H19.7167L18.5792 7.58366H7.42083L6.28333 10.8337ZM8.125 17.3337C8.57639 17.3337 8.96007 17.1757 9.27604 16.8597C9.59201 16.5437 9.75 16.16 9.75 15.7087C9.75 15.2573 9.59201 14.8736 9.27604 14.5576C8.96007 14.2416 8.57639 14.0837 8.125 14.0837C7.67361 14.0837 7.28993 14.2416 6.97396 14.5576C6.65799 14.8736 6.5 15.2573 6.5 15.7087C6.5 16.16 6.65799 16.5437 6.97396 16.8597C7.28993 17.1757 7.67361 17.3337 8.125 17.3337ZM17.875 17.3337C18.3264 17.3337 18.7101 17.1757 19.026 16.8597C19.342 16.5437 19.5 16.16 19.5 15.7087C19.5 15.2573 19.342 14.8736 19.026 14.5576C18.7101 14.2416 18.3264 14.0837 17.875 14.0837C17.4236 14.0837 17.0399 14.2416 16.724 14.5576C16.408 14.8736 16.25 15.2573 16.25 15.7087C16.25 16.16 16.408 16.5437 16.724 16.8597C17.0399 17.1757 17.4236 17.3337 17.875 17.3337ZM5.41667 18.417H20.5833V13.0003H5.41667V18.417Z" fill="#202D40"/>
</g>
</svg>
