<svg width="23" height="19" viewBox="0 0 23 19" fill="none" xmlns="http://www.w3.org/2000/svg">
<g id="Book open">
<path id="Icon" d="M11.5001 5.54167C11.5001 4.70181 11.0962 3.89636 10.3773 3.3025C9.65844 2.70863 8.68341 2.375 7.66675 2.375H1.91675V14.25H8.62508C9.38758 14.25 10.1188 14.5002 10.658 14.9456C11.1972 15.391 11.5001 15.9951 11.5001 16.625M11.5001 5.54167V16.625M11.5001 5.54167C11.5001 4.70181 11.9039 3.89636 12.6228 3.3025C13.3417 2.70863 14.3168 2.375 15.3334 2.375H21.0834V14.25H14.3751C13.6126 14.25 12.8813 14.5002 12.3421 14.9456C11.803 15.391 11.5001 15.9951 11.5001 16.625" stroke="#202D40" stroke-width="2" stroke-linecap="round" stroke-linejoin="round"/>
</g>
</svg>
